<svg width="380" height="106" viewBox="0 0 380 106" fill="none" xmlns="http://www.w3.org/2000/svg">
<path fill-rule="evenodd" clip-rule="evenodd" d="M3.64977 3.90657C8.71387 -1.30219 17.0789 -1.30219 22.143 3.90657C26.748 8.6431 26.9953 16.0334 22.885 21.055L48.558 51.4822H327.5H328.547L329.281 52.228L359.009 82.4134C364.093 78.7769 371.232 79.2806 375.747 83.9244C380.613 88.9297 380.613 96.8987 375.747 101.904C370.683 107.113 362.317 107.113 357.253 101.904C353.031 97.5611 352.472 90.9873 355.577 86.0539L326.453 56.4822H47.3964H46.2348L45.4857 55.5944L19.0333 24.2434C14.0951 26.9165 7.77644 26.1308 3.64977 21.8862C-1.21659 16.8809 -1.21659 8.91194 3.64977 3.90657ZM18.5581 7.39197C15.4573 4.20268 10.3355 4.20268 7.23474 7.39197C4.25509 10.4567 4.25509 15.3361 7.23474 18.4008C10.3355 21.5901 15.4573 21.5901 18.5581 18.4008C21.5377 15.3361 21.5377 10.4567 18.5581 7.39197ZM360.838 87.4098C363.939 84.2205 369.061 84.2205 372.162 87.4098C375.141 90.4745 375.141 95.3539 372.162 98.4186C369.061 101.608 363.939 101.608 360.838 98.4186C357.859 95.3539 357.859 90.4745 360.838 87.4098Z" fill="white"/>
</svg>
