<svg width="52" height="95" viewBox="0 0 52 95" fill="none" xmlns="http://www.w3.org/2000/svg">
<path fill-rule="evenodd" clip-rule="evenodd" d="M39.5 6C39.5 2.96243 41.9624 0.5 45 0.5H46C49.0376 0.5 51.5 2.96243 51.5 6C51.5 9.03757 49.0376 11.5 46 11.5H45C44.2031 11.5 43.4458 11.3305 42.7622 11.0257L28.5 24.3677V68V68.8115L27.9346 69.3936L11.6864 86.1196C12.2024 86.9574 12.5 87.9439 12.5 89C12.5 92.0376 10.0376 94.5 7 94.5H6C2.96243 94.5 0.5 92.0376 0.5 89C0.5 85.9624 2.96243 83.5 6 83.5H7C7.50671 83.5 7.99742 83.5685 8.46336 83.6968L24.5 67.1885V23.5V22.6323L25.1337 22.0395L39.949 8.18001C39.6601 7.51158 39.5 6.77449 39.5 6ZM45 3.5C43.6193 3.5 42.5 4.61929 42.5 6C42.5 7.38071 43.6193 8.5 45 8.5H46C47.3807 8.5 48.5 7.38071 48.5 6C48.5 4.61929 47.3807 3.5 46 3.5H45ZM3.5 89C3.5 87.6193 4.61929 86.5 6 86.5H7C8.38071 86.5 9.5 87.6193 9.5 89C9.5 90.3807 8.38071 91.5 7 91.5H6C4.61929 91.5 3.5 90.3807 3.5 89Z" fill="black"/>
</svg>
