<svg width="62" height="47" viewBox="0 0 62 47" fill="none" xmlns="http://www.w3.org/2000/svg">
<path d="M61.9432 46.1274C61.977 46.006 62 45.8779 62 45.7431V1.25524C62 1.11959 61.977 0.990629 61.9425 0.868371C61.9374 0.851623 61.9346 0.834874 61.9288 0.818126C61.8828 0.674933 61.8152 0.545976 61.7303 0.432929C61.7245 0.425393 61.7238 0.416182 61.7181 0.408645C61.7145 0.404458 61.7102 0.402783 61.7066 0.398596C61.6159 0.286386 61.5088 0.195948 61.3887 0.12812C61.3793 0.123096 61.3721 0.116396 61.3628 0.111372C61.2491 0.0519175 61.1254 0.0184227 60.9953 0.00837406C60.9823 0.00753667 60.9701 0.00418623 60.9571 0.00418623C60.9449 0.00334884 60.9341 0 60.9219 0H1.07954C1.06732 0 1.05581 0.00334884 1.04358 0.00418623C1.03207 0.00502362 1.02057 0.00753667 1.00906 0.00837406C0.877443 0.0184227 0.75158 0.0527556 0.636506 0.113047C0.629314 0.116397 0.62356 0.122258 0.616368 0.125608C0.494101 0.193436 0.3855 0.285548 0.294159 0.399433C0.290563 0.40362 0.286248 0.404458 0.282652 0.408645C0.276898 0.415345 0.276179 0.424556 0.270425 0.432092C0.185558 0.545139 0.117232 0.674933 0.0712023 0.818126C0.0654486 0.834874 0.0625717 0.851622 0.0575372 0.869207C0.0230149 0.991466 0 1.12042 0 1.25608V45.7448C0 45.8821 0.023734 46.0127 0.0589755 46.1367C0.06401 46.1534 0.066887 46.1693 0.0719215 46.1861C0.118671 46.3301 0.187715 46.4599 0.273302 46.5729C0.278336 46.5796 0.279775 46.588 0.284809 46.5947C0.289125 46.6006 0.294878 46.6039 0.299913 46.6098C0.335154 46.6525 0.373992 46.6902 0.414268 46.727C0.432249 46.7429 0.448071 46.7622 0.466771 46.7773C0.514239 46.8158 0.565303 46.8468 0.617806 46.8752C0.630752 46.8819 0.64226 46.8928 0.655205 46.8987C0.785384 46.9632 0.928507 47 1.07882 47H60.9205C61.0708 47 61.2139 46.964 61.3441 46.8987C61.3642 46.8886 61.3829 46.8736 61.4023 46.8618C61.4469 46.8359 61.4915 46.8091 61.5325 46.7764C61.5541 46.7588 61.5735 46.7362 61.5944 46.717C61.631 46.6826 61.667 46.6483 61.6987 46.6089C61.7044 46.6022 61.7109 46.5972 61.7166 46.5905C61.7224 46.583 61.7238 46.5729 61.7296 46.5654C61.8137 46.4532 61.8813 46.3242 61.9274 46.1819C61.9346 46.1635 61.9381 46.1459 61.9432 46.1274ZM2.15837 4.10403L20.3164 23.415L2.15837 42.8801V4.10403ZM39.3749 22.4688C39.3001 22.5257 39.221 22.5734 39.1584 22.6538C39.1347 22.684 39.1268 22.7233 39.1059 22.7551L31.0004 31.3752L3.86003 2.51132H58.1407L39.3749 22.4688ZM21.9159 25.1157L30.2725 34.0029C30.4789 34.2223 30.7393 34.332 31.0004 34.332C31.2614 34.332 31.5218 34.2223 31.7275 34.0029L39.9805 25.2263L58.1357 44.4878H3.84421L21.9159 25.1157ZM41.5807 23.5247L59.8424 4.10403V42.9002L41.5807 23.5247Z" fill="black"/>
</svg>
