<svg width="156" height="25" viewBox="0 0 156 25" fill="none" xmlns="http://www.w3.org/2000/svg">
<path fill-rule="evenodd" clip-rule="evenodd" d="M139.348 7.849C141.661 5.73121 145.22 5.75468 147.508 7.90454C150.162 10.399 149.999 14.6645 147.166 16.9467C144.994 18.6968 141.897 18.716 139.7 16.9917C136.785 14.7042 136.62 10.3477 139.348 7.849ZM151.617 3.53238C147.044 -0.765141 139.927 -0.816211 135.296 3.424C133.44 5.12398 132.253 7.25189 131.724 9.50002H0V14.5H131.611C132.126 17.2407 133.595 19.8276 135.995 21.7115C140.387 25.1584 146.58 25.1233 150.93 21.6192C156.604 17.049 156.922 8.51838 151.617 3.53238Z" fill="#FFB703"/>
</svg>
