<svg width="952" height="535" viewBox="0 0 952 535" fill="none" xmlns="http://www.w3.org/2000/svg">
<path d="M0 6.56525H72.5015M149.742 6.56525H72.5015M72.5015 6.56525L72.5015 184M241.672 85.2736V106.956M241.672 155.666V106.956M241.672 155.666L213.871 177.645H172.171L149.742 155.666V106.956L172.171 85.2736H213.871L241.672 106.956M241.672 155.666L241.672 184M295.061 15.7726V92.1049L295.061 184M358.559 15.7726V101.906M358.559 184L358.559 101.906M358.559 101.906L380.356 85.2736H416.054L435.641 100.421L435.641 184M568.955 85.2736V106.956M568.955 106.956V155.666M568.955 106.956L541.787 85.2736H499.455L477.025 106.956V155.666L499.455 177.645H541.787L568.955 155.666M568.955 155.666L568.955 184M137.387 283.173L123.205 263.184H53.073L22.1137 290.212V323.775L53.073 347.239H123.205L149.742 373.97V420.601L123.205 443.174H53.073L35.2785 423.198M201.867 347.239L201.867 454.5M347.186 454.5L347.186 420.601M347.186 273.283V373.97M347.186 373.97L321.281 347.239H272.315L249.253 373.97V420.601L272.315 448.52H321.281L347.186 420.601M347.186 373.97V420.601M486.818 373.97L460.914 347.239H411.947L388.886 373.97V420.601L411.947 448.52H460.914L486.818 420.601M486.818 373.97V420.601M486.818 373.97V273.283M486.818 420.601L486.818 454.5M534.837 347.239L534.837 455M674.785 347.239V373.97M674.785 373.97L648.88 347.239H599.914L576.853 373.97V420.601L599.914 448.52H648.88L674.785 420.601M674.785 373.97V420.601M674.785 420.601V448.52V522.477L709.713 496.268M718.697 347.239V420.601L741.126 448.52H796.411L812.838 420.601M812.838 420.601V347.239M812.838 420.601L812.838 455M936.854 433.967L921.69 448.52H878.411L856.613 426.838V400.404M856.613 400.404V367.733L878.411 347.239H921.69L945.068 367.733V400.404H896.733H856.613Z" stroke="#FFB703" stroke-width="12"/>
</svg>
